<!-- youtube.svg -->
<svg xmlns="http://www.w3.org/2000/svg" viewBox="0 0 576 512" fill="currentColor">
  <path d="M549.7 124.1C537.8 85.7 505.2 59.5 466 54.3 417.7 48 288 48 288 48S158.3 48 
           110 54.3c-39.2 5.2-71.8 31.4-83.7 69.8C16 169.6 16 256 16 256s0 86.4 
           10.3 131.9c11.9 38.4 44.5 64.6 83.7 69.8 48.3 6.3 178 6.3 178 6.3s129.7 
           0 178-6.3c39.2-5.2 71.8-31.4 83.7-69.8C560 342.4 560 256 560 256s0-86.4-10.3-131.9zM232 
           334V178l142 78-142 78z"></path>
</svg>
